<?xml version="1.0" standalone="no"?>
<!DOCTYPE svg PUBLIC "-//W3C//DTD SVG 20010904//EN"
 "http://www.w3.org/TR/2001/REC-SVG-20010904/DTD/svg10.dtd">
<svg version="1.0" xmlns="http://www.w3.org/2000/svg"
 width="172.000000pt" height="172.000000pt" viewBox="0 0 172.000000 172.000000"
 preserveAspectRatio="xMidYMid meet">
<metadata>
Created by potrace 1.14, written by Peter Selinger 2001-2017
</metadata>
<g transform="translate(0.000000,172.000000) scale(0.100000,-0.100000)"
fill="#000000" stroke="none">
<path d="M1167 1516 c-20 -8 -43 -18 -50 -24 -20 -16 -115 -41 -181 -47 -94
-9 -142 -24 -184 -60 -52 -45 -110 -142 -122 -204 -17 -88 -34 -106 -104 -110
-78 -4 -158 -68 -198 -158 -48 -110 -67 -308 -35 -370 13 -25 14 -37 6 -63
-29 -82 9 -174 125 -305 l59 -67 56 6 c120 13 256 78 376 179 115 98 321 316
445 470 8 11 20 24 25 31 6 6 33 40 60 76 28 36 52 67 55 70 11 11 48 67 62
95 15 28 14 34 -12 99 -15 38 -38 79 -51 90 -13 12 -30 33 -36 49 -7 15 -23
32 -36 38 -22 10 -24 18 -25 72 0 57 -3 64 -35 93 -55 51 -128 65 -200 40z"/>
</g>
</svg>
